<svg width="244" height="74" viewBox="0 0 244 74" fill="none" xmlns="http://www.w3.org/2000/svg">
<rect width="244" height="74" rx="10" fill="url(#paint0_linear_20_2169)"/>
<path d="M50.7969 17H27.2031C22.6799 17 19 20.6799 19 25.2031V48.7969C19 53.3201 22.6799 57 27.2031 57H50.7969C55.3201 57 59 53.3201 59 48.7969V25.2031C59 20.6799 55.3201 17 50.7969 17ZM43.1061 43.6045L42.3816 49.4002C42.235 50.573 41.238 51.4531 40.056 51.4531H37.9441C36.762 51.4531 35.765 50.573 35.6184 49.4001L34.894 43.6044C34.5852 41.1346 36.5109 38.9531 39 38.9531C37.0615 38.9531 35.4844 37.376 35.4844 35.4375C35.4844 33.499 37.0615 31.9219 39 31.9219C40.9385 31.9219 42.5156 33.499 42.5156 35.4375C42.5156 37.376 40.9385 38.9531 39 38.9531C41.4891 38.9531 43.4148 41.1346 43.1061 43.6045ZM39 29.5781C35.3384 29.5781 32.3594 32.5571 32.3594 36.2188C32.3594 37.5385 32.748 38.7685 33.4145 39.8034C32.9354 40.6174 32.6404 41.5266 32.5491 42.4652C30.9819 40.8473 30.0156 38.6439 30.0156 36.2188C30.0156 31.2648 34.046 27.2344 39 27.2344C43.954 27.2344 47.9844 31.2648 47.9844 36.2188C47.9844 38.6439 47.0181 40.8473 45.4509 42.4653C45.3597 41.5266 45.0646 40.6175 44.5856 39.8034C45.252 38.7685 45.6406 37.5385 45.6406 36.2188C45.6406 32.5571 42.6616 29.5781 39 29.5781ZM44.8467 48.5756L45.2074 45.6898C48.2891 43.6632 50.3281 40.1749 50.3281 36.2188C50.3281 29.9724 45.2463 24.8906 39 24.8906C32.7537 24.8906 27.6719 29.9724 27.6719 36.2188C27.6719 40.1749 29.7109 43.6632 32.7926 45.6898L33.1533 48.5756C28.5316 46.3799 25.3281 41.6667 25.3281 36.2188C25.3281 28.6801 31.4613 22.5469 39 22.5469C46.5387 22.5469 52.6719 28.6801 52.6719 36.2188C52.6719 41.6667 49.4684 46.3799 44.8467 48.5756Z" fill="#2C2E7E"/>
<path d="M225.747 36.1493L220.772 31.1739C220.593 30.9652 220.279 30.9409 220.07 31.1197C219.862 31.2984 219.837 31.6125 220.016 31.8212C220.033 31.8406 220.051 31.8588 220.07 31.8754L224.195 36.005H204.498C204.223 36.005 204 36.2277 204 36.5025C204 36.7773 204.223 37 204.498 37H224.195L220.07 41.1246C219.862 41.3033 219.837 41.6174 220.016 41.8261C220.195 42.0348 220.509 42.0591 220.718 41.8803C220.737 41.8637 220.755 41.8455 220.772 41.8261L225.747 36.8507C225.94 36.6567 225.94 36.3433 225.747 36.1493Z" fill="white"/>
<path d="M75.248 27.4365C75.248 27.2314 75.2161 27.0492 75.1523 26.8896C75.0931 26.7301 74.986 26.5843 74.8311 26.4521C74.6761 26.32 74.4574 26.1924 74.1748 26.0693C73.8968 25.9417 73.5413 25.8118 73.1084 25.6797C72.6344 25.5339 72.1969 25.3721 71.7959 25.1943C71.3994 25.012 71.0531 24.8024 70.7568 24.5654C70.4606 24.3239 70.2305 24.0482 70.0664 23.7383C69.9023 23.4238 69.8203 23.0615 69.8203 22.6514C69.8203 22.2458 69.9046 21.8766 70.0732 21.5439C70.2464 21.2113 70.4902 20.9242 70.8047 20.6826C71.1237 20.4365 71.4997 20.2474 71.9326 20.1152C72.3656 19.9785 72.8441 19.9102 73.3682 19.9102C74.1064 19.9102 74.7422 20.0469 75.2754 20.3203C75.8132 20.5938 76.2256 20.9606 76.5127 21.4209C76.8044 21.8812 76.9502 22.3893 76.9502 22.9453H75.248C75.248 22.6172 75.1774 22.3278 75.0361 22.0771C74.8994 21.8219 74.6898 21.6214 74.4072 21.4756C74.1292 21.3298 73.776 21.2568 73.3477 21.2568C72.9421 21.2568 72.6048 21.3184 72.3359 21.4414C72.0671 21.5645 71.8665 21.7308 71.7344 21.9404C71.6022 22.1501 71.5361 22.387 71.5361 22.6514C71.5361 22.8382 71.5794 23.0091 71.666 23.1641C71.7526 23.3145 71.8848 23.4557 72.0625 23.5879C72.2402 23.7155 72.4635 23.8363 72.7324 23.9502C73.0013 24.0641 73.318 24.1735 73.6826 24.2783C74.234 24.4424 74.7148 24.6247 75.125 24.8252C75.5352 25.0212 75.877 25.2445 76.1504 25.4951C76.4238 25.7458 76.6289 26.0306 76.7656 26.3496C76.9023 26.6641 76.9707 27.0218 76.9707 27.4229C76.9707 27.8421 76.8864 28.2204 76.7178 28.5576C76.5492 28.8903 76.3076 29.1751 75.9932 29.4121C75.6833 29.6445 75.3096 29.8245 74.8721 29.9521C74.4391 30.0752 73.9561 30.1367 73.4229 30.1367C72.9443 30.1367 72.4727 30.0729 72.0078 29.9453C71.5475 29.8177 71.1283 29.624 70.75 29.3643C70.3717 29.0999 70.071 28.7718 69.8477 28.3799C69.6243 27.9834 69.5127 27.5208 69.5127 26.9922H71.2285C71.2285 27.3158 71.2832 27.5915 71.3926 27.8193C71.5065 28.0472 71.6637 28.234 71.8643 28.3799C72.0648 28.5212 72.2972 28.626 72.5615 28.6943C72.8304 28.7627 73.1175 28.7969 73.4229 28.7969C73.8239 28.7969 74.1589 28.7399 74.4277 28.626C74.7012 28.512 74.9062 28.3525 75.043 28.1475C75.1797 27.9424 75.248 27.7054 75.248 27.4365ZM82.7744 28.2568V22.6035H84.4287V30H82.8701L82.7744 28.2568ZM83.0068 26.7188L83.5605 26.7051C83.5605 27.2018 83.5059 27.6598 83.3965 28.0791C83.2871 28.4938 83.1185 28.8561 82.8906 29.166C82.6628 29.4714 82.3711 29.7106 82.0156 29.8838C81.6602 30.0524 81.234 30.1367 80.7373 30.1367C80.3773 30.1367 80.0469 30.0843 79.7461 29.9795C79.4453 29.8747 79.1855 29.7129 78.9668 29.4941C78.7526 29.2754 78.5863 28.9906 78.4678 28.6396C78.3493 28.2887 78.29 27.8695 78.29 27.3818V22.6035H79.9375V27.3955C79.9375 27.6644 79.9694 27.89 80.0332 28.0723C80.097 28.25 80.1836 28.3936 80.293 28.5029C80.4023 28.6123 80.5299 28.6898 80.6758 28.7354C80.8216 28.7809 80.9766 28.8037 81.1406 28.8037C81.61 28.8037 81.9792 28.7126 82.248 28.5303C82.5215 28.3434 82.7152 28.0928 82.8291 27.7783C82.9476 27.4639 83.0068 27.1107 83.0068 26.7188ZM86.124 19.5H87.7715V28.4209L87.6143 30H86.124V19.5ZM92.5977 26.2334V26.377C92.5977 26.9238 92.5361 27.4274 92.4131 27.8877C92.2946 28.3434 92.1123 28.7399 91.8662 29.0771C91.6247 29.4144 91.3239 29.6764 90.9639 29.8633C90.6084 30.0456 90.196 30.1367 89.7266 30.1367C89.2663 30.1367 88.8652 30.0501 88.5234 29.877C88.1816 29.7038 87.8945 29.4577 87.6621 29.1387C87.4342 28.8197 87.2497 28.4391 87.1084 27.9971C86.9671 27.555 86.8669 27.0674 86.8076 26.5342V26.0762C86.8669 25.5384 86.9671 25.0508 87.1084 24.6133C87.2497 24.1712 87.4342 23.7907 87.6621 23.4717C87.8945 23.1481 88.1794 22.8997 88.5166 22.7266C88.8584 22.5534 89.2572 22.4668 89.7129 22.4668C90.1868 22.4668 90.6038 22.5579 90.9639 22.7402C91.3285 22.9225 91.6315 23.1823 91.873 23.5195C92.1146 23.8522 92.2946 24.2487 92.4131 24.709C92.5361 25.1693 92.5977 25.6774 92.5977 26.2334ZM90.9502 26.377V26.2334C90.9502 25.9007 90.9229 25.5885 90.8682 25.2969C90.8135 25.0007 90.7223 24.7409 90.5947 24.5176C90.4717 24.2943 90.3031 24.1188 90.0889 23.9912C89.8792 23.859 89.6172 23.793 89.3027 23.793C89.0111 23.793 88.7604 23.8431 88.5508 23.9434C88.3411 24.0436 88.1657 24.1803 88.0244 24.3535C87.8831 24.5267 87.7715 24.7272 87.6895 24.9551C87.612 25.1829 87.5596 25.429 87.5322 25.6934V26.9307C87.5732 27.2725 87.6598 27.5869 87.792 27.874C87.9287 28.1566 88.1201 28.3844 88.3662 28.5576C88.6123 28.7262 88.929 28.8105 89.3164 28.8105C89.6217 28.8105 89.8792 28.749 90.0889 28.626C90.2985 28.5029 90.4648 28.332 90.5879 28.1133C90.7155 27.89 90.8066 27.6302 90.8613 27.334C90.9206 27.0378 90.9502 26.7188 90.9502 26.377ZM98.1416 27.9971C98.1416 27.833 98.1006 27.6849 98.0186 27.5527C97.9365 27.416 97.7793 27.293 97.5469 27.1836C97.319 27.0742 96.9818 26.974 96.5352 26.8828C96.1432 26.7962 95.7832 26.6937 95.4551 26.5752C95.1315 26.4521 94.8535 26.304 94.6211 26.1309C94.3887 25.9577 94.2087 25.7526 94.0811 25.5156C93.9535 25.2786 93.8896 25.0052 93.8896 24.6953C93.8896 24.3945 93.9557 24.1097 94.0879 23.8408C94.2201 23.5719 94.4092 23.335 94.6553 23.1299C94.9014 22.9248 95.1999 22.763 95.5508 22.6445C95.9062 22.526 96.3027 22.4668 96.7402 22.4668C97.36 22.4668 97.891 22.5716 98.333 22.7812C98.7796 22.9863 99.1214 23.2666 99.3584 23.6221C99.5954 23.973 99.7139 24.3695 99.7139 24.8115H98.0664C98.0664 24.6156 98.0163 24.4333 97.916 24.2646C97.8203 24.0915 97.6745 23.9525 97.4785 23.8477C97.2826 23.7383 97.0365 23.6836 96.7402 23.6836C96.4577 23.6836 96.223 23.7292 96.0361 23.8203C95.8538 23.9069 95.7171 24.0208 95.626 24.1621C95.5394 24.3034 95.4961 24.4583 95.4961 24.627C95.4961 24.75 95.5189 24.8617 95.5645 24.9619C95.6146 25.0576 95.6966 25.1465 95.8105 25.2285C95.9245 25.306 96.0794 25.3789 96.2754 25.4473C96.4759 25.5156 96.7266 25.5817 97.0273 25.6455C97.5924 25.764 98.0778 25.9167 98.4834 26.1035C98.8936 26.2858 99.208 26.5228 99.4268 26.8145C99.6455 27.1016 99.7549 27.4661 99.7549 27.9082C99.7549 28.2363 99.6842 28.5371 99.543 28.8105C99.4062 29.0794 99.2057 29.3141 98.9414 29.5146C98.6771 29.7106 98.3604 29.8633 97.9912 29.9727C97.6266 30.082 97.2165 30.1367 96.7607 30.1367C96.0908 30.1367 95.5234 30.0182 95.0586 29.7812C94.5938 29.5397 94.2406 29.2321 93.999 28.8584C93.762 28.4801 93.6436 28.0882 93.6436 27.6826H95.2363C95.2546 27.988 95.3389 28.2318 95.4893 28.4141C95.6442 28.5918 95.8356 28.7217 96.0635 28.8037C96.2959 28.8812 96.5352 28.9199 96.7812 28.9199C97.0775 28.9199 97.3258 28.8812 97.5264 28.8037C97.7269 28.7217 97.8796 28.6123 97.9844 28.4756C98.0892 28.3343 98.1416 28.1748 98.1416 27.9971ZM104.219 28.8242C104.488 28.8242 104.729 28.7718 104.943 28.667C105.162 28.5576 105.338 28.4072 105.47 28.2158C105.606 28.0244 105.682 27.8034 105.695 27.5527H107.247C107.238 28.0312 107.097 28.4665 106.823 28.8584C106.55 29.2503 106.188 29.5625 105.736 29.7949C105.285 30.0228 104.786 30.1367 104.239 30.1367C103.674 30.1367 103.182 30.041 102.763 29.8496C102.343 29.6536 101.995 29.3848 101.717 29.043C101.439 28.7012 101.229 28.307 101.088 27.8604C100.951 27.4137 100.883 26.9352 100.883 26.4248V26.1855C100.883 25.6751 100.951 25.1966 101.088 24.75C101.229 24.2988 101.439 23.9023 101.717 23.5605C101.995 23.2188 102.343 22.9521 102.763 22.7607C103.182 22.5648 103.672 22.4668 104.232 22.4668C104.825 22.4668 105.344 22.5853 105.791 22.8223C106.238 23.0547 106.589 23.3805 106.844 23.7998C107.104 24.2145 107.238 24.6976 107.247 25.249H105.695C105.682 24.9756 105.613 24.7295 105.49 24.5107C105.372 24.2874 105.203 24.1097 104.984 23.9775C104.77 23.8454 104.513 23.7793 104.212 23.7793C103.879 23.7793 103.604 23.8477 103.385 23.9844C103.166 24.1165 102.995 24.2988 102.872 24.5312C102.749 24.7591 102.66 25.0166 102.605 25.3037C102.555 25.5863 102.53 25.8802 102.53 26.1855V26.4248C102.53 26.7301 102.555 27.0264 102.605 27.3135C102.656 27.6006 102.742 27.8581 102.865 28.0859C102.993 28.3092 103.166 28.4893 103.385 28.626C103.604 28.7581 103.882 28.8242 104.219 28.8242ZM110.166 24.0117V30H108.519V22.6035H110.091L110.166 24.0117ZM112.429 22.5557L112.415 24.0869C112.315 24.0687 112.205 24.055 112.087 24.0459C111.973 24.0368 111.859 24.0322 111.745 24.0322C111.463 24.0322 111.214 24.0732 111 24.1553C110.786 24.2327 110.606 24.3467 110.46 24.4971C110.319 24.6429 110.209 24.8206 110.132 25.0303C110.054 25.2399 110.009 25.4746 109.995 25.7344L109.619 25.7617C109.619 25.2969 109.665 24.8662 109.756 24.4697C109.847 24.0732 109.984 23.7246 110.166 23.4238C110.353 23.123 110.585 22.8883 110.863 22.7197C111.146 22.5511 111.472 22.4668 111.841 22.4668C111.941 22.4668 112.048 22.4759 112.162 22.4941C112.281 22.5124 112.369 22.5329 112.429 22.5557ZM115.225 22.6035V30H113.57V22.6035H115.225ZM113.461 20.6621C113.461 20.4115 113.543 20.2041 113.707 20.04C113.876 19.8714 114.108 19.7871 114.404 19.7871C114.696 19.7871 114.926 19.8714 115.095 20.04C115.263 20.2041 115.348 20.4115 115.348 20.6621C115.348 20.9082 115.263 21.1133 115.095 21.2773C114.926 21.4414 114.696 21.5234 114.404 21.5234C114.108 21.5234 113.876 21.4414 113.707 21.2773C113.543 21.1133 113.461 20.9082 113.461 20.6621ZM117.036 19.5H118.684V28.4209L118.526 30H117.036V19.5ZM123.51 26.2334V26.377C123.51 26.9238 123.448 27.4274 123.325 27.8877C123.207 28.3434 123.024 28.7399 122.778 29.0771C122.537 29.4144 122.236 29.6764 121.876 29.8633C121.521 30.0456 121.108 30.1367 120.639 30.1367C120.178 30.1367 119.777 30.0501 119.436 29.877C119.094 29.7038 118.807 29.4577 118.574 29.1387C118.346 28.8197 118.162 28.4391 118.021 27.9971C117.879 27.555 117.779 27.0674 117.72 26.5342V26.0762C117.779 25.5384 117.879 25.0508 118.021 24.6133C118.162 24.1712 118.346 23.7907 118.574 23.4717C118.807 23.1481 119.091 22.8997 119.429 22.7266C119.771 22.5534 120.169 22.4668 120.625 22.4668C121.099 22.4668 121.516 22.5579 121.876 22.7402C122.241 22.9225 122.544 23.1823 122.785 23.5195C123.027 23.8522 123.207 24.2487 123.325 24.709C123.448 25.1693 123.51 25.6774 123.51 26.2334ZM121.862 26.377V26.2334C121.862 25.9007 121.835 25.5885 121.78 25.2969C121.726 25.0007 121.634 24.7409 121.507 24.5176C121.384 24.2943 121.215 24.1188 121.001 23.9912C120.791 23.859 120.529 23.793 120.215 23.793C119.923 23.793 119.673 23.8431 119.463 23.9434C119.253 24.0436 119.078 24.1803 118.937 24.3535C118.795 24.5267 118.684 24.7272 118.602 24.9551C118.524 25.1829 118.472 25.429 118.444 25.6934V26.9307C118.485 27.2725 118.572 27.5869 118.704 27.874C118.841 28.1566 119.032 28.3844 119.278 28.5576C119.524 28.7262 119.841 28.8105 120.229 28.8105C120.534 28.8105 120.791 28.749 121.001 28.626C121.211 28.5029 121.377 28.332 121.5 28.1133C121.628 27.89 121.719 27.6302 121.773 27.334C121.833 27.0378 121.862 26.7188 121.862 26.377ZM128.165 30.1367C127.618 30.1367 127.124 30.0479 126.682 29.8701C126.244 29.6878 125.87 29.4349 125.561 29.1113C125.255 28.7878 125.021 28.4072 124.856 27.9697C124.692 27.5322 124.61 27.0605 124.61 26.5547V26.2812C124.61 25.7025 124.695 25.1784 124.863 24.709C125.032 24.2396 125.267 23.8385 125.567 23.5059C125.868 23.1686 126.224 22.9111 126.634 22.7334C127.044 22.5557 127.488 22.4668 127.967 22.4668C128.495 22.4668 128.958 22.5557 129.354 22.7334C129.751 22.9111 130.079 23.1618 130.339 23.4854C130.603 23.8044 130.799 24.1849 130.927 24.627C131.059 25.069 131.125 25.5566 131.125 26.0898V26.7939H125.41V25.6113H129.498V25.4814C129.489 25.1852 129.43 24.9072 129.32 24.6475C129.215 24.3877 129.054 24.1781 128.835 24.0186C128.616 23.859 128.325 23.7793 127.96 23.7793C127.687 23.7793 127.443 23.8385 127.229 23.957C127.019 24.071 126.843 24.2373 126.702 24.4561C126.561 24.6748 126.451 24.9391 126.374 25.249C126.301 25.5544 126.265 25.8984 126.265 26.2812V26.5547C126.265 26.8783 126.308 27.179 126.395 27.457C126.486 27.7305 126.618 27.9697 126.791 28.1748C126.964 28.3799 127.174 28.5417 127.42 28.6602C127.666 28.7741 127.946 28.8311 128.261 28.8311C128.657 28.8311 129.01 28.7513 129.32 28.5918C129.63 28.4323 129.899 28.2067 130.127 27.915L130.995 28.7559C130.836 28.9883 130.628 29.2116 130.373 29.4258C130.118 29.6354 129.806 29.8063 129.437 29.9385C129.072 30.0706 128.648 30.1367 128.165 30.1367ZM143.997 24.75V25.2969C143.997 26.0488 143.899 26.7233 143.703 27.3203C143.507 27.9173 143.227 28.4255 142.862 28.8447C142.502 29.264 142.069 29.5853 141.563 29.8086C141.058 30.0273 140.497 30.1367 139.882 30.1367C139.271 30.1367 138.713 30.0273 138.207 29.8086C137.706 29.5853 137.271 29.264 136.901 28.8447C136.532 28.4255 136.245 27.9173 136.04 27.3203C135.84 26.7233 135.739 26.0488 135.739 25.2969V24.75C135.739 23.998 135.84 23.3258 136.04 22.7334C136.241 22.1364 136.523 21.6283 136.888 21.209C137.257 20.7852 137.692 20.4639 138.193 20.2451C138.699 20.0218 139.257 19.9102 139.868 19.9102C140.483 19.9102 141.044 20.0218 141.55 20.2451C142.056 20.4639 142.491 20.7852 142.855 21.209C143.22 21.6283 143.5 22.1364 143.696 22.7334C143.897 23.3258 143.997 23.998 143.997 24.75ZM142.281 25.2969V24.7363C142.281 24.1803 142.227 23.6904 142.117 23.2666C142.012 22.8382 141.855 22.4805 141.646 22.1934C141.44 21.9017 141.188 21.6829 140.887 21.5371C140.586 21.3867 140.246 21.3115 139.868 21.3115C139.49 21.3115 139.153 21.3867 138.856 21.5371C138.56 21.6829 138.307 21.9017 138.098 22.1934C137.893 22.4805 137.735 22.8382 137.626 23.2666C137.517 23.6904 137.462 24.1803 137.462 24.7363V25.2969C137.462 25.8529 137.517 26.3451 137.626 26.7734C137.735 27.2018 137.895 27.5641 138.104 27.8604C138.319 28.152 138.574 28.373 138.87 28.5234C139.166 28.6693 139.504 28.7422 139.882 28.7422C140.265 28.7422 140.604 28.6693 140.9 28.5234C141.197 28.373 141.447 28.152 141.652 27.8604C141.857 27.5641 142.012 27.2018 142.117 26.7734C142.227 26.3451 142.281 25.8529 142.281 25.2969ZM147.183 24.1826V30H145.535V22.6035H147.087L147.183 24.1826ZM146.889 26.0283L146.355 26.0215C146.36 25.4974 146.433 25.0166 146.574 24.5791C146.72 24.1416 146.921 23.7656 147.176 23.4512C147.436 23.1367 147.745 22.8952 148.105 22.7266C148.465 22.5534 148.867 22.4668 149.309 22.4668C149.664 22.4668 149.985 22.5169 150.272 22.6172C150.564 22.7129 150.812 22.8701 151.018 23.0889C151.227 23.3076 151.387 23.5924 151.496 23.9434C151.605 24.2897 151.66 24.7158 151.66 25.2217V30H150.006V25.2148C150.006 24.8594 149.953 24.5791 149.849 24.374C149.748 24.1644 149.6 24.0163 149.404 23.9297C149.213 23.8385 148.974 23.793 148.687 23.793C148.404 23.793 148.151 23.8522 147.928 23.9707C147.704 24.0892 147.515 24.251 147.36 24.4561C147.21 24.6611 147.094 24.8981 147.012 25.167C146.93 25.4359 146.889 25.723 146.889 26.0283Z" fill="white"/>
<path d="M75.2842 41.9082L71.4609 53H69.1494L73.9658 40.2031H75.4424L75.2842 41.9082ZM78.4834 53L74.6514 41.9082L74.4844 40.2031H75.9697L80.8037 53H78.4834ZM78.2988 48.2539V50.0029H71.3379V48.2539H78.2988ZM83.9941 45.3184V56.6562H81.876V43.4902H83.8271L83.9941 45.3184ZM90.1904 48.1572V48.3418C90.1904 49.0332 90.1084 49.6748 89.9443 50.2666C89.7861 50.8525 89.5488 51.3652 89.2324 51.8047C88.9219 52.2383 88.5381 52.5752 88.0811 52.8154C87.624 53.0557 87.0967 53.1758 86.499 53.1758C85.9072 53.1758 85.3887 53.0674 84.9434 52.8506C84.5039 52.6279 84.1318 52.3145 83.8271 51.9102C83.5225 51.5059 83.2764 51.0312 83.0889 50.4863C82.9072 49.9355 82.7783 49.332 82.7021 48.6758V47.9639C82.7783 47.2666 82.9072 46.6338 83.0889 46.0654C83.2764 45.4971 83.5225 45.0078 83.8271 44.5977C84.1318 44.1875 84.5039 43.8711 84.9434 43.6484C85.3828 43.4258 85.8955 43.3145 86.4814 43.3145C87.0791 43.3145 87.6094 43.4316 88.0723 43.666C88.5352 43.8945 88.9248 44.2227 89.2412 44.6504C89.5576 45.0723 89.7949 45.582 89.9531 46.1797C90.1113 46.7715 90.1904 47.4307 90.1904 48.1572ZM88.0723 48.3418V48.1572C88.0723 47.7178 88.0312 47.3105 87.9492 46.9355C87.8672 46.5547 87.7383 46.2207 87.5625 45.9336C87.3867 45.6465 87.1611 45.4238 86.8857 45.2656C86.6162 45.1016 86.291 45.0195 85.9102 45.0195C85.5352 45.0195 85.2129 45.084 84.9434 45.2129C84.6738 45.3359 84.4482 45.5088 84.2666 45.7314C84.085 45.9541 83.9443 46.2148 83.8447 46.5137C83.7451 46.8066 83.6748 47.126 83.6338 47.4717V49.1768C83.7041 49.5986 83.8242 49.9854 83.9941 50.3369C84.1641 50.6885 84.4043 50.9697 84.7148 51.1807C85.0312 51.3857 85.4355 51.4883 85.9277 51.4883C86.3086 51.4883 86.6338 51.4062 86.9033 51.2422C87.1729 51.0781 87.3926 50.8525 87.5625 50.5654C87.7383 50.2725 87.8672 49.9355 87.9492 49.5547C88.0312 49.1738 88.0723 48.7695 88.0723 48.3418ZM94.1191 45.3184V56.6562H92.001V43.4902H93.9521L94.1191 45.3184ZM100.315 48.1572V48.3418C100.315 49.0332 100.233 49.6748 100.069 50.2666C99.9111 50.8525 99.6738 51.3652 99.3574 51.8047C99.0469 52.2383 98.6631 52.5752 98.2061 52.8154C97.749 53.0557 97.2217 53.1758 96.624 53.1758C96.0322 53.1758 95.5137 53.0674 95.0684 52.8506C94.6289 52.6279 94.2568 52.3145 93.9521 51.9102C93.6475 51.5059 93.4014 51.0312 93.2139 50.4863C93.0322 49.9355 92.9033 49.332 92.8271 48.6758V47.9639C92.9033 47.2666 93.0322 46.6338 93.2139 46.0654C93.4014 45.4971 93.6475 45.0078 93.9521 44.5977C94.2568 44.1875 94.6289 43.8711 95.0684 43.6484C95.5078 43.4258 96.0205 43.3145 96.6064 43.3145C97.2041 43.3145 97.7344 43.4316 98.1973 43.666C98.6602 43.8945 99.0498 44.2227 99.3662 44.6504C99.6826 45.0723 99.9199 45.582 100.078 46.1797C100.236 46.7715 100.315 47.4307 100.315 48.1572ZM98.1973 48.3418V48.1572C98.1973 47.7178 98.1562 47.3105 98.0742 46.9355C97.9922 46.5547 97.8633 46.2207 97.6875 45.9336C97.5117 45.6465 97.2861 45.4238 97.0107 45.2656C96.7412 45.1016 96.416 45.0195 96.0352 45.0195C95.6602 45.0195 95.3379 45.084 95.0684 45.2129C94.7988 45.3359 94.5732 45.5088 94.3916 45.7314C94.21 45.9541 94.0693 46.2148 93.9697 46.5137C93.8701 46.8066 93.7998 47.126 93.7588 47.4717V49.1768C93.8291 49.5986 93.9492 49.9854 94.1191 50.3369C94.2891 50.6885 94.5293 50.9697 94.8398 51.1807C95.1562 51.3857 95.5605 51.4883 96.0527 51.4883C96.4336 51.4883 96.7588 51.4062 97.0283 51.2422C97.2979 51.0781 97.5176 50.8525 97.6875 50.5654C97.8633 50.2725 97.9922 49.9355 98.0742 49.5547C98.1562 49.1738 98.1973 48.7695 98.1973 48.3418ZM104.385 39.5V53H102.258V39.5H104.385ZM110.897 53.1758C110.194 53.1758 109.559 53.0615 108.99 52.833C108.428 52.5986 107.947 52.2734 107.549 51.8574C107.156 51.4414 106.854 50.9521 106.644 50.3896C106.433 49.8271 106.327 49.2207 106.327 48.5703V48.2188C106.327 47.4746 106.436 46.8008 106.652 46.1973C106.869 45.5938 107.171 45.0781 107.558 44.6504C107.944 44.2168 108.401 43.8857 108.929 43.6572C109.456 43.4287 110.027 43.3145 110.643 43.3145C111.322 43.3145 111.917 43.4287 112.427 43.6572C112.937 43.8857 113.358 44.208 113.692 44.624C114.032 45.0342 114.284 45.5234 114.448 46.0918C114.618 46.6602 114.703 47.2871 114.703 47.9727V48.8779H107.355V47.3574H112.611V47.1904C112.6 46.8096 112.523 46.4521 112.383 46.1182C112.248 45.7842 112.04 45.5146 111.759 45.3096C111.478 45.1045 111.103 45.002 110.634 45.002C110.282 45.002 109.969 45.0781 109.693 45.2305C109.424 45.377 109.198 45.5908 109.017 45.8721C108.835 46.1533 108.694 46.4932 108.595 46.8916C108.501 47.2842 108.454 47.7266 108.454 48.2188V48.5703C108.454 48.9863 108.51 49.373 108.621 49.7305C108.738 50.082 108.908 50.3896 109.131 50.6533C109.354 50.917 109.623 51.125 109.939 51.2773C110.256 51.4238 110.616 51.4971 111.021 51.4971C111.53 51.4971 111.984 51.3945 112.383 51.1895C112.781 50.9844 113.127 50.6943 113.42 50.3193L114.536 51.4004C114.331 51.6992 114.064 51.9863 113.736 52.2617C113.408 52.5312 113.007 52.751 112.532 52.9209C112.063 53.0908 111.519 53.1758 110.897 53.1758ZM125.909 48.2275H122.578V46.4785H125.909C126.489 46.4785 126.958 46.3848 127.315 46.1973C127.673 46.0098 127.934 45.752 128.098 45.4238C128.268 45.0898 128.353 44.709 128.353 44.2812C128.353 43.877 128.268 43.499 128.098 43.1475C127.934 42.79 127.673 42.5029 127.315 42.2861C126.958 42.0693 126.489 41.9609 125.909 41.9609H123.255V53H121.049V40.2031H125.909C126.899 40.2031 127.74 40.3789 128.432 40.7305C129.129 41.0762 129.659 41.5566 130.022 42.1719C130.386 42.7812 130.567 43.4785 130.567 44.2637C130.567 45.0898 130.386 45.7988 130.022 46.3906C129.659 46.9824 129.129 47.4365 128.432 47.7529C127.74 48.0693 126.899 48.2275 125.909 48.2275ZM131.807 48.3506V48.1484C131.807 47.4629 131.906 46.8271 132.105 46.2412C132.305 45.6494 132.592 45.1367 132.967 44.7031C133.348 44.2637 133.811 43.9238 134.355 43.6836C134.906 43.4375 135.527 43.3145 136.219 43.3145C136.916 43.3145 137.537 43.4375 138.082 43.6836C138.633 43.9238 139.099 44.2637 139.479 44.7031C139.86 45.1367 140.15 45.6494 140.35 46.2412C140.549 46.8271 140.648 47.4629 140.648 48.1484V48.3506C140.648 49.0361 140.549 49.6719 140.35 50.2578C140.15 50.8438 139.86 51.3564 139.479 51.7959C139.099 52.2295 138.636 52.5693 138.091 52.8154C137.546 53.0557 136.928 53.1758 136.236 53.1758C135.539 53.1758 134.915 53.0557 134.364 52.8154C133.819 52.5693 133.356 52.2295 132.976 51.7959C132.595 51.3564 132.305 50.8438 132.105 50.2578C131.906 49.6719 131.807 49.0361 131.807 48.3506ZM133.925 48.1484V48.3506C133.925 48.7783 133.969 49.1826 134.057 49.5635C134.145 49.9443 134.282 50.2783 134.47 50.5654C134.657 50.8525 134.897 51.0781 135.19 51.2422C135.483 51.4062 135.832 51.4883 136.236 51.4883C136.629 51.4883 136.969 51.4062 137.256 51.2422C137.549 51.0781 137.789 50.8525 137.977 50.5654C138.164 50.2783 138.302 49.9443 138.39 49.5635C138.483 49.1826 138.53 48.7783 138.53 48.3506V48.1484C138.53 47.7266 138.483 47.3281 138.39 46.9531C138.302 46.5723 138.161 46.2354 137.968 45.9424C137.78 45.6494 137.54 45.4209 137.247 45.2568C136.96 45.0869 136.617 45.002 136.219 45.002C135.82 45.002 135.475 45.0869 135.182 45.2568C134.895 45.4209 134.657 45.6494 134.47 45.9424C134.282 46.2354 134.145 46.5723 134.057 46.9531C133.969 47.3281 133.925 47.7266 133.925 48.1484ZM148.225 51.0312V39.5H150.352V53H148.427L148.225 51.0312ZM142.037 48.3506V48.166C142.037 47.4453 142.122 46.7891 142.292 46.1973C142.462 45.5996 142.708 45.0869 143.03 44.6592C143.353 44.2256 143.745 43.8945 144.208 43.666C144.671 43.4316 145.192 43.3145 145.772 43.3145C146.347 43.3145 146.851 43.4258 147.284 43.6484C147.718 43.8711 148.087 44.1904 148.392 44.6064C148.696 45.0166 148.939 45.5088 149.121 46.083C149.303 46.6514 149.432 47.2842 149.508 47.9814V48.5703C149.432 49.25 149.303 49.8711 149.121 50.4336C148.939 50.9961 148.696 51.4824 148.392 51.8926C148.087 52.3027 147.715 52.6191 147.275 52.8418C146.842 53.0645 146.335 53.1758 145.755 53.1758C145.181 53.1758 144.662 53.0557 144.199 52.8154C143.742 52.5752 143.353 52.2383 143.03 51.8047C142.708 51.3711 142.462 50.8613 142.292 50.2754C142.122 49.6836 142.037 49.042 142.037 48.3506ZM144.155 48.166V48.3506C144.155 48.7842 144.193 49.1885 144.27 49.5635C144.352 49.9385 144.478 50.2695 144.647 50.5566C144.817 50.8379 145.037 51.0605 145.307 51.2246C145.582 51.3828 145.91 51.4619 146.291 51.4619C146.771 51.4619 147.167 51.3564 147.478 51.1455C147.788 50.9346 148.031 50.6504 148.207 50.293C148.389 49.9297 148.512 49.5254 148.576 49.0801V47.4893C148.541 47.1436 148.468 46.8213 148.356 46.5225C148.251 46.2236 148.107 45.9629 147.926 45.7402C147.744 45.5117 147.519 45.3359 147.249 45.2129C146.985 45.084 146.672 45.0195 146.309 45.0195C145.922 45.0195 145.594 45.1016 145.324 45.2656C145.055 45.4297 144.832 45.6553 144.656 45.9424C144.486 46.2295 144.36 46.5635 144.278 46.9443C144.196 47.3252 144.155 47.7324 144.155 48.166ZM156.451 51.4883C156.797 51.4883 157.107 51.4209 157.383 51.2861C157.664 51.1455 157.89 50.9521 158.06 50.7061C158.235 50.46 158.332 50.1758 158.35 49.8535H160.345C160.333 50.4688 160.151 51.0283 159.8 51.5322C159.448 52.0361 158.982 52.4375 158.402 52.7363C157.822 53.0293 157.181 53.1758 156.478 53.1758C155.751 53.1758 155.118 53.0527 154.579 52.8066C154.04 52.5547 153.592 52.209 153.234 51.7695C152.877 51.3301 152.607 50.8232 152.426 50.249C152.25 49.6748 152.162 49.0596 152.162 48.4033V48.0957C152.162 47.4395 152.25 46.8242 152.426 46.25C152.607 45.6699 152.877 45.1602 153.234 44.7207C153.592 44.2812 154.04 43.9385 154.579 43.6924C155.118 43.4404 155.748 43.3145 156.469 43.3145C157.23 43.3145 157.898 43.4668 158.473 43.7715C159.047 44.0703 159.498 44.4893 159.826 45.0283C160.16 45.5615 160.333 46.1826 160.345 46.8916H158.35C158.332 46.54 158.244 46.2236 158.086 45.9424C157.934 45.6553 157.717 45.4268 157.436 45.2568C157.16 45.0869 156.829 45.002 156.442 45.002C156.015 45.002 155.66 45.0898 155.379 45.2656C155.098 45.4355 154.878 45.6699 154.72 45.9688C154.562 46.2617 154.447 46.5928 154.377 46.9619C154.312 47.3252 154.28 47.7031 154.28 48.0957V48.4033C154.28 48.7959 154.312 49.1768 154.377 49.5459C154.441 49.915 154.553 50.2461 154.711 50.5391C154.875 50.8262 155.098 51.0576 155.379 51.2334C155.66 51.4033 156.018 51.4883 156.451 51.4883ZM167.332 51.0928V46.5576C167.332 46.2178 167.271 45.9248 167.147 45.6787C167.024 45.4326 166.837 45.2422 166.585 45.1074C166.339 44.9727 166.028 44.9053 165.653 44.9053C165.308 44.9053 165.009 44.9639 164.757 45.0811C164.505 45.1982 164.309 45.3564 164.168 45.5557C164.027 45.7549 163.957 45.9805 163.957 46.2324H161.848C161.848 45.8574 161.938 45.4941 162.12 45.1426C162.302 44.791 162.565 44.4775 162.911 44.2021C163.257 43.9268 163.67 43.71 164.15 43.5518C164.631 43.3936 165.17 43.3145 165.768 43.3145C166.482 43.3145 167.115 43.4346 167.666 43.6748C168.223 43.915 168.659 44.2783 168.976 44.7646C169.298 45.2451 169.459 45.8486 169.459 46.5752V50.8027C169.459 51.2363 169.488 51.626 169.547 51.9717C169.611 52.3115 169.702 52.6074 169.819 52.8594V53H167.648C167.549 52.7715 167.47 52.4814 167.411 52.1299C167.358 51.7725 167.332 51.4268 167.332 51.0928ZM167.64 47.2168L167.657 48.5264H166.137C165.744 48.5264 165.398 48.5645 165.1 48.6406C164.801 48.7109 164.552 48.8164 164.353 48.957C164.153 49.0977 164.004 49.2676 163.904 49.4668C163.805 49.666 163.755 49.8916 163.755 50.1436C163.755 50.3955 163.813 50.627 163.931 50.8379C164.048 51.043 164.218 51.2041 164.44 51.3213C164.669 51.4385 164.944 51.4971 165.267 51.4971C165.7 51.4971 166.078 51.4092 166.4 51.2334C166.729 51.0518 166.986 50.832 167.174 50.5742C167.361 50.3105 167.461 50.0615 167.473 49.8271L168.158 50.7676C168.088 51.0078 167.968 51.2656 167.798 51.541C167.628 51.8164 167.405 52.0801 167.13 52.332C166.86 52.5781 166.535 52.7803 166.154 52.9385C165.779 53.0967 165.346 53.1758 164.854 53.1758C164.232 53.1758 163.679 53.0527 163.192 52.8066C162.706 52.5547 162.325 52.2178 162.05 51.7959C161.774 51.3682 161.637 50.8848 161.637 50.3457C161.637 49.8418 161.73 49.3965 161.918 49.0098C162.111 48.6172 162.393 48.2891 162.762 48.0254C163.137 47.7617 163.594 47.5625 164.133 47.4277C164.672 47.2871 165.287 47.2168 165.979 47.2168H167.64ZM177.009 50.4248C177.009 50.2139 176.956 50.0234 176.851 49.8535C176.745 49.6777 176.543 49.5195 176.244 49.3789C175.951 49.2383 175.518 49.1094 174.943 48.9922C174.439 48.8809 173.977 48.749 173.555 48.5967C173.139 48.4385 172.781 48.248 172.482 48.0254C172.184 47.8027 171.952 47.5391 171.788 47.2344C171.624 46.9297 171.542 46.5781 171.542 46.1797C171.542 45.793 171.627 45.4268 171.797 45.0811C171.967 44.7354 172.21 44.4307 172.526 44.167C172.843 43.9033 173.227 43.6953 173.678 43.543C174.135 43.3906 174.645 43.3145 175.207 43.3145C176.004 43.3145 176.687 43.4492 177.255 43.7188C177.829 43.9824 178.269 44.3428 178.573 44.7998C178.878 45.251 179.03 45.7607 179.03 46.3291H176.912C176.912 46.0771 176.848 45.8428 176.719 45.626C176.596 45.4033 176.408 45.2246 176.156 45.0898C175.904 44.9492 175.588 44.8789 175.207 44.8789C174.844 44.8789 174.542 44.9375 174.302 45.0547C174.067 45.166 173.892 45.3125 173.774 45.4941C173.663 45.6758 173.607 45.875 173.607 46.0918C173.607 46.25 173.637 46.3936 173.695 46.5225C173.76 46.6455 173.865 46.7598 174.012 46.8652C174.158 46.9648 174.357 47.0586 174.609 47.1465C174.867 47.2344 175.189 47.3193 175.576 47.4014C176.303 47.5537 176.927 47.75 177.448 47.9902C177.976 48.2246 178.38 48.5293 178.661 48.9043C178.942 49.2734 179.083 49.7422 179.083 50.3105C179.083 50.7324 178.992 51.1191 178.811 51.4707C178.635 51.8164 178.377 52.1182 178.037 52.376C177.697 52.6279 177.29 52.8242 176.815 52.9648C176.347 53.1055 175.819 53.1758 175.233 53.1758C174.372 53.1758 173.643 53.0234 173.045 52.7188C172.447 52.4082 171.993 52.0127 171.683 51.5322C171.378 51.0459 171.226 50.542 171.226 50.0205H173.273C173.297 50.4131 173.405 50.7266 173.599 50.9609C173.798 51.1895 174.044 51.3564 174.337 51.4619C174.636 51.5615 174.943 51.6113 175.26 51.6113C175.641 51.6113 175.96 51.5615 176.218 51.4619C176.476 51.3564 176.672 51.2158 176.807 51.04C176.941 50.8584 177.009 50.6533 177.009 50.4248ZM185.297 43.4902V45.0371H179.936V43.4902H185.297ZM181.482 41.1611H183.601V50.3721C183.601 50.665 183.642 50.8906 183.724 51.0488C183.812 51.2012 183.932 51.3037 184.084 51.3564C184.236 51.4092 184.415 51.4355 184.62 51.4355C184.767 51.4355 184.907 51.4268 185.042 51.4092C185.177 51.3916 185.285 51.374 185.367 51.3564L185.376 52.9736C185.2 53.0264 184.995 53.0732 184.761 53.1143C184.532 53.1553 184.269 53.1758 183.97 53.1758C183.483 53.1758 183.053 53.0908 182.678 52.9209C182.303 52.7451 182.01 52.4609 181.799 52.0684C181.588 51.6758 181.482 51.1543 181.482 50.5039V41.1611ZM192.267 50.4248C192.267 50.2139 192.214 50.0234 192.108 49.8535C192.003 49.6777 191.801 49.5195 191.502 49.3789C191.209 49.2383 190.775 49.1094 190.201 48.9922C189.697 48.8809 189.234 48.749 188.812 48.5967C188.396 48.4385 188.039 48.248 187.74 48.0254C187.441 47.8027 187.21 47.5391 187.046 47.2344C186.882 46.9297 186.8 46.5781 186.8 46.1797C186.8 45.793 186.885 45.4268 187.055 45.0811C187.225 44.7354 187.468 44.4307 187.784 44.167C188.101 43.9033 188.484 43.6953 188.936 43.543C189.393 43.3906 189.902 43.3145 190.465 43.3145C191.262 43.3145 191.944 43.4492 192.513 43.7188C193.087 43.9824 193.526 44.3428 193.831 44.7998C194.136 45.251 194.288 45.7607 194.288 46.3291H192.17C192.17 46.0771 192.105 45.8428 191.977 45.626C191.854 45.4033 191.666 45.2246 191.414 45.0898C191.162 44.9492 190.846 44.8789 190.465 44.8789C190.102 44.8789 189.8 44.9375 189.56 45.0547C189.325 45.166 189.149 45.3125 189.032 45.4941C188.921 45.6758 188.865 45.875 188.865 46.0918C188.865 46.25 188.895 46.3936 188.953 46.5225C189.018 46.6455 189.123 46.7598 189.27 46.8652C189.416 46.9648 189.615 47.0586 189.867 47.1465C190.125 47.2344 190.447 47.3193 190.834 47.4014C191.561 47.5537 192.185 47.75 192.706 47.9902C193.233 48.2246 193.638 48.5293 193.919 48.9043C194.2 49.2734 194.341 49.7422 194.341 50.3105C194.341 50.7324 194.25 51.1191 194.068 51.4707C193.893 51.8164 193.635 52.1182 193.295 52.376C192.955 52.6279 192.548 52.8242 192.073 52.9648C191.604 53.1055 191.077 53.1758 190.491 53.1758C189.63 53.1758 188.9 53.0234 188.303 52.7188C187.705 52.4082 187.251 52.0127 186.94 51.5322C186.636 51.0459 186.483 50.542 186.483 50.0205H188.531C188.555 50.4131 188.663 50.7266 188.856 50.9609C189.056 51.1895 189.302 51.3564 189.595 51.4619C189.894 51.5615 190.201 51.6113 190.518 51.6113C190.898 51.6113 191.218 51.5615 191.476 51.4619C191.733 51.3564 191.93 51.2158 192.064 51.04C192.199 50.8584 192.267 50.6533 192.267 50.4248Z" fill="white"/>
<defs>
<linearGradient id="paint0_linear_20_2169" x1="0" y1="74" x2="244" y2="74" gradientUnits="userSpaceOnUse">
<stop stop-color="#808BC5"/>
<stop offset="1" stop-color="#0B73B9"/>
</linearGradient>
</defs>
</svg>
